# xmcd
#
# Track frame offsets:
#	150
#	13703
#	24537
#	38676
#	51248
#	62781
#	71178
#	84282
#	95476
#	107622
#	121238
#	132675
#
# Disc length: 1937 seconds
#
# Revision: 1
# Processed by: cddbd v1.5.2PL0 Copyright (c) Steve Scherf et al.
# Submitted via: EasyCDDAExtractor 6.5.0.1
#
DISCID=a2078f0c
DTITLE=Moon Mullican - Sings His All-Time Greatest Hits
DYEAR=1958
DGENRE=Country
TTITLE0=I'll Sail My Ship Alone
TTITLE1=Honolulu Rock-A-Roll-A
TTITLE2=The Leaves Mustn't Fall
TTITLE3=Mona Lisa
TTITLE4=Sugar Beet
TTITLE5=New Pretty Blonde (New Jole Blon)
TTITLE6=Sweeter Than The Flowers
TTITLE7=Pipeliner Blues
TTITLE8=I Was Sorta Wonderin'
TTITLE9=Cherokee Boogie
TTITLE10=You Don't Have To Be A Baby To Cry
TTITLE11=Foggy River
EXTD=
EXTT0=
EXTT1=
EXTT2=
EXTT3=
EXTT4=
EXTT5=
EXTT6=
EXTT7=
EXTT8=
EXTT9=
EXTT10=
EXTT11=
PLAYORDER=
